<svg xmlns="http://www.w3.org/2000/svg" viewBox="0 0 240 160">
  <defs>
    <radialGradient id="puff" cx="35%" cy="28%" r="70%">
      <stop offset="0" stop-color="#fffefa"/>
      <stop offset=".58" stop-color="#fff8eb"/>
      <stop offset="1" stop-color="#dfe9ec"/>
    </radialGradient>
    <filter id="shadow" x="-20%" y="-20%" width="140%" height="150%">
      <feDropShadow dx="0" dy="10" stdDeviation="6" flood-color="#617073" flood-opacity=".22"/>
    </filter>
  </defs>
  <g filter="url(#shadow)">
    <ellipse cx="52" cy="102" rx="45" ry="34" fill="url(#puff)"/>
    <ellipse cx="88" cy="78" rx="48" ry="44" fill="url(#puff)"/>
    <ellipse cx="134" cy="68" rx="55" ry="50" fill="url(#puff)"/>
    <ellipse cx="183" cy="95" rx="46" ry="38" fill="url(#puff)"/>
    <ellipse cx="112" cy="111" rx="76" ry="36" fill="url(#puff)"/>
    <ellipse cx="160" cy="116" rx="52" ry="28" fill="url(#puff)"/>
  </g>
  <path d="M102 118c-4 23-2 34-9 42m48-48c-3 23-1 34-8 45" stroke="#88a77c" stroke-width="7" stroke-linecap="round" opacity=".44"/>
  <path d="M94 137c-14 4-18 12-18 12m61-14c12 4 17 12 17 12" stroke="#88a77c" stroke-width="5" stroke-linecap="round" opacity=".38"/>
</svg>
