<svg xmlns="http://www.w3.org/2000/svg" viewBox="0 0 1600 900">
  <defs>
    <linearGradient id="sky" x1="0" y1="0" x2="1" y2="1">
      <stop offset="0" stop-color="#d8e8e2"/>
      <stop offset="0.34" stop-color="#c8e2e8"/>
      <stop offset="0.68" stop-color="#e9e5d1"/>
      <stop offset="1" stop-color="#c8dfe4"/>
    </linearGradient>
    <radialGradient id="sun" cx="27%" cy="18%" r="44%">
      <stop offset="0" stop-color="#fff8d4" stop-opacity=".9"/>
      <stop offset=".45" stop-color="#fff5dd" stop-opacity=".38"/>
      <stop offset="1" stop-color="#fff5dd" stop-opacity="0"/>
    </radialGradient>
    <filter id="blur">
      <feGaussianBlur stdDeviation="9"/>
    </filter>
    <filter id="soft">
      <feGaussianBlur stdDeviation="2.2"/>
    </filter>
  </defs>
  <rect width="1600" height="900" fill="url(#sky)"/>
  <rect width="1600" height="900" fill="url(#sun)"/>
  <g filter="url(#blur)" opacity=".52" fill="#fffdf4">
    <ellipse cx="210" cy="250" rx="190" ry="74"/>
    <ellipse cx="432" cy="190" rx="180" ry="62"/>
    <ellipse cx="1190" cy="180" rx="280" ry="88"/>
    <ellipse cx="1365" cy="345" rx="230" ry="70"/>
  </g>
  <g opacity=".25" fill="#879d95">
    <path d="M110 585h42V430h-42Zm58 0h28V500h-28Zm52 0h50V382h-50Zm1245-70h50V300h-50Zm-72 0h38V360h-38Zm-96 0h62V246h-62Z"/>
    <path d="M1288 248 1328 196l40 52Zm178 48 29-40 29 40ZM214 384l32-44 32 44Z" fill="#d8d8c5"/>
  </g>
  <g opacity=".22" stroke="#6f8d7c" stroke-width="9" fill="none" stroke-linecap="round">
    <path d="M135 590c50-120 120-150 230-170"/>
    <path d="M1240 540c90-150 170-185 300-220"/>
  </g>
  <g opacity=".7" fill="none" stroke="#fffef7" stroke-linecap="round" stroke-width="5" filter="url(#soft)">
    <path d="M690 142c10-13 24-13 35 0m0 0c11-13 25-13 36 0"/>
    <path d="M1270 250c8-10 19-10 28 0m0 0c8-10 20-10 28 0"/>
    <path d="M940 610c8-10 20-10 29 0m0 0c9-10 21-10 30 0"/>
    <path d="M1450 600c8-10 19-10 28 0m0 0c8-10 20-10 28 0"/>
  </g>
  <rect y="620" width="1600" height="280" fill="#eef2e2" opacity=".22"/>
</svg>
